PathFileType	4	(X/Y/Z)	Walk8.trc
DataRate	CameraRate	NumFrames	NumMarkers	Units	OrigDataRate	OrigDataStartFrame	OrigNumFrames
200.000000	200.000000	6	55	mm	200.000000	807	935
Frame#	Times		LToe		LWRR		C7		RTH2		LACR1		RBHD		LElbow		LUA1		RMT1		LCAR		RCAR		RToe		LWRU		RTB2		LMMAL		RTB3		LTH3		RFA1		RTB4		RMT5		LMT5		RTB1		RMFC		RElbow		LTH4		RElbowM		RMMAL		RLFC		RCAL		LTB2		LPSI		LLFC		RPSI		RTH3		LTH2		T10		LASI		LCAL		LBHD		RBack		RASI		RFHD		LFHD		RACR1		LMT1		RLMAL		LLMAL		RUA1		RWRR		LTB1		LMFC		LTH1		LTB3		LTB4		RTH4
			X1	Y1	Z1	X2	Y2	Z2	X3	Y3	Z3	X4	Y4	Z4	X5	Y5	Z5	X6	Y6	Z6	X7	Y7	Z7	X8	Y8	Z8	X9	Y9	Z9	X10	Y10	Z10	X11	Y11	Z11	X12	Y12	Z12	X13	Y13	Z13	X14	Y14	Z14	X15	Y15	Z15	X16	Y16	Z16	X17	Y17	Z17	X18	Y18	Z18	X19	Y19	Z19	X20	Y20	Z20	X21	Y21	Z21	X22	Y22	Z22	X23	Y23	Z23	X24	Y24	Z24	X25	Y25	Z25	X26	Y26	Z26	X27	Y27	Z27	X28	Y28	Z28	X29	Y29	Z29	X30	Y30	Z30	X31	Y31	Z31	X32	Y32	Z32	X33	Y33	Z33	X34	Y34	Z34	X35	Y35	Z35	X36	Y36	Z36	X37	Y37	Z37	X38	Y38	Z38	X39	Y39	Z39	X40	Y40	Z40	X41	Y41	Z41	X42	Y42	Z42	X43	Y43	Z43	X44	Y44	Z44	X45	Y45	Z45	X46	Y46	Z46	X47	Y47	Z47	X48	Y48	Z48	X49	Y49	Z49	X50	Y50	Z50	X51	Y51	Z51	X52	Y52	Z52	X53	Y53	Z53	X54	Y54	Z54	X55	Y55	Z55

807	4.035	824.43	126.72	-95.614	302.58	809.99	-296.23	364.87	1478.2	-23.146	449.51	654.51	98.436	449.7	1408.3	-193.78	397.56	1608.1	-90.774	310.79	1091.9	-296.49	382.24	1214.2	-263.92	388.49	25.294	31.708	291.31	952.71	-301.57	537.48	812.58	260.6	441.47	23.546	77.007	368.76	776.53	-283.67	346.37	271.12	91.68	662.86	97.34	-63.493	320.17	187.4	15.096	514.03	585.5	-164.95	431.58	935.53	274.3	352.4	270.29	16.582	340.93	23.823	111.51	770.77	76.465	-152.23	387.16	363.07	21.107	345.6	483.68	-17.096	379.86	1089.3	276.48	488.95	676.28	-180.76	338.34	1088.4	200.43	266.19	65.411	-12.475	377.07	510.1	108.91	178.89	35.316	4.4011	611.32	332.22	-154.72	267.24	1039.4	-51.387	519.58	527.76	-157.82	264.07	1044.8	17.228	380.48	557.53	113.83	543.59	695.13	-135.66	286.33	1223	-11.426	455.87	1025.9	-171.55	597.27	29.939	-96.049	400.38	1603.9	45.88	349.18	1370.7	134.04	448.68	990.12	141.5	575.89	1641.9	-62.875	577.41	1641.3	12.057	478.5	1425.5	130.2	793.85	86.856	-76.691	236.1	69.784	64.759	645.88	80.156	-144.47	447.83	1248.4	224.09	531.47	858.71	210.13	604.95	423.19	-79.897	517.1	497.56	-29.567	462.57	765.11	-191.7	642.32	241.75	-88.048	622.48	332.16	-83.25	387.05	649.09	137.76
808	4.04	835.16	130.08	-96.421	305.31	809.66	-296.61	369.98	1477.5	-23.711	453.08	653.59	98.147	454.78	1407.5	-194.37	402.64	1607.3	-91.431	314.69	1091.5	-296.76	386.64	1213.6	-264.36	388.5	25.21	31.599	294.61	952.45	-301.82	542.98	812.04	260.18	441.48	23.496	77.011	371.36	775.89	-284.2	347.9	270.61	91.448	674.23	98.385	-63.782	321.11	187.04	14.907	516.4	583.61	-165.8	437.04	934.94	274	353.81	269.8	16.223	340.88	23.79	111.52	782.26	78.986	-152.89	389.27	362.32	20.637	348.52	483.12	-17.414	385.29	1088.7	276.2	491.77	674.54	-181.47	343.64	1087.8	200.24	266.33	65.399	-12.533	380.02	509.44	108.63	178.99	35.546	4.3609	618.09	332.43	-155.25	272.26	1038.7	-52.094	522.66	526.51	-158.34	268.89	1044.1	16.494	383.64	556.87	113.54	546.78	693.07	-136.71	291.36	1222.3	-11.995	461.12	1025	-171.69	609.67	29.724	-95.93	405.45	1603.2	45.226	354.39	1370.1	133.54	452.96	989.17	141.63	580.97	1641.2	-63.526	582.47	1640.6	11.419	483.71	1424.8	129.56	805.41	89.788	-77.488	236.26	69.974	64.687	657.32	80.845	-144.65	453.26	1247.8	223.58	536.89	858.13	209.73	610.31	423.43	-80.59	520.4	496.04	-30.222	465.86	763.51	-192.32	651.05	242.55	-88.557	629.51	332.65	-83.815	390.6	648.46	137.49
809	4.045	845.17	133.13	-97.26	308.16	809.31	-297	375.1	1476.8	-24.305	456.68	652.66	97.831	459.87	1406.6	-194.99	407.73	1606.6	-92.105	318.66	1091.1	-297.06	391.08	1213	-264.82	388.51	25.143	31.505	298	952.15	-302.09	548.45	811.47	259.75	441.49	23.445	77.005	374.06	775.23	-284.72	349.44	270.1	91.216	684.86	99.359	-64.008	322.05	186.68	14.724	519.01	581.8	-166.64	442.47	934.33	273.66	355.23	269.31	15.875	340.83	23.756	111.53	792.92	81.245	-153.53	391.37	361.54	20.169	351.46	482.55	-17.728	390.71	1088.1	275.88	494.75	672.87	-182.21	348.93	1087.1	200.01	266.46	65.392	-12.592	382.99	508.76	108.34	179.08	35.783	4.3284	624.68	332.56	-155.77	277.31	1038	-52.818	526.02	525.36	-158.87	273.75	1043.4	15.746	386.84	556.22	113.26	550.08	691.14	-137.77	296.4	1221.6	-12.591	466.41	1024	-171.83	621.23	29.55	-95.701	410.51	1602.4	44.554	359.59	1369.4	133.02	457.3	988.28	141.73	586.04	1640.5	-64.185	587.53	1639.9	10.776	488.91	1424.1	128.9	816.2	92.479	-78.305	236.43	70.173	64.621	667.96	81.458	-144.76	458.67	1247.1	223.04	542.29	857.53	209.31	615.66	423.6	-81.281	523.9	494.66	-30.885	469.22	761.94	-192.99	659.35	243.26	-89.019	636.33	333.05	-84.354	394.18	647.83	137.22
810	4.05	854.45	135.79	-98.134	311.11	808.93	-297.4	380.21	1476	-24.928	460.3	651.72	97.489	464.98	1405.8	-195.62	412.82	1605.8	-92.798	322.69	1090.7	-297.38	395.56	1212.3	-265.31	388.52	25.092	31.424	301.47	951.82	-302.38	553.87	810.87	259.3	441.5	23.393	76.991	376.88	774.57	-285.25	350.98	269.59	90.983	694.74	100.22	-64.173	323	186.32	14.548	521.93	580.12	-167.49	447.88	933.7	273.29	356.65	268.82	15.538	340.79	23.72	111.54	802.73	83.183	-154.15	393.44	360.76	19.708	354.42	481.96	-18.038	396.11	1087.4	275.53	497.94	671.29	-182.99	354.2	1086.5	199.74	266.59	65.391	-12.65	385.99	508.08	108.04	179.16	36.027	4.3042	631.1	332.58	-156.26	282.38	1037.3	-53.557	529.72	524.32	-159.4	278.64	1042.7	14.99	390.07	555.55	112.99	553.51	689.37	-138.81	301.45	1220.9	-13.214	471.71	1023.1	-171.97	631.91	29.379	-95.367	415.58	1601.6	43.865	364.79	1368.8	132.47	461.7	987.45	141.79	591.12	1639.8	-64.852	592.59	1639.2	10.125	494.1	1423.4	128.21	826.2	94.858	-79.144	236.59	70.381	64.561	677.79	81.953	-144.8	464.06	1246.5	222.47	547.66	856.91	208.88	621.02	423.67	-81.965	527.64	493.43	-31.538	472.66	760.43	-193.71	667.22	243.83	-89.431	642.94	333.35	-84.865	397.8	647.18	136.92
811	4.055	862.99	138.02	-99.044	314.16	808.52	-297.82	385.32	1475.3	-25.581	463.95	650.76	97.123	470.1	1404.9	-196.28	417.91	1605	-93.508	326.78	1090.3	-297.74	400.08	1211.7	-265.83	388.53	25.058	31.358	305.03	951.47	-302.71	559.26	810.25	258.83	441.5	23.343	76.972	379.8	773.89	-285.78	352.52	269.08	90.749	703.86	100.92	-64.279	323.94	185.96	14.379	525.22	578.61	-168.31	453.26	933.06	272.9	358.08	268.33	15.21	340.74	23.683	111.55	811.68	84.752	-154.75	395.5	359.96	19.258	357.4	481.35	-18.341	401.49	1086.8	275.15	501.39	669.84	-183.81	359.47	1085.8	199.43	266.72	65.397	-12.71	389	507.38	107.74	179.25	36.28	4.2884	637.32	332.49	-156.71	287.46	1036.5	-54.309	533.76	523.4	-159.91	283.56	1042	14.226	393.33	554.89	112.72	557.12	687.82	-139.81	306.51	1220.1	-13.86	477.03	1022.1	-172.13	641.67	29.18	-94.942	420.64	1600.8	43.159	369.98	1368.1	131.9	466.17	986.69	141.79	596.2	1639	-65.529	597.64	1638.5	9.4664	499.29	1422.7	127.51	835.39	96.864	-80.007	236.77	70.598	64.507	686.77	82.289	-144.76	469.45	1245.8	221.87	553.01	856.27	208.43	626.4	423.64	-82.635	531.65	492.35	-32.161	476.24	759.01	-194.49	674.66	244.24	-89.795	649.34	333.52	-85.346	401.44	646.52	136.62
812	4.06	870.8	139.76	-99.988	317.33	808.09	-298.24	390.43	1474.5	-26.266	467.62	649.79	96.733	475.23	1404.1	-196.96	423.01	1604.1	-94.236	330.93	1089.8	-298.12	404.63	1211	-266.37	388.54	25.04	31.306	308.68	951.07	-303.06	564.6	809.6	258.35	441.5	23.295	76.95	382.84	773.19	-286.3	354.07	268.56	90.515	712.22	101.42	-64.334	324.88	185.61	14.215	528.93	577.3	-169.12	458.62	932.4	272.47	359.52	267.83	14.891	340.7	23.644	111.57	819.76	85.913	-155.34	397.54	359.15	18.823	360.39	480.73	-18.638	406.86	1086.2	274.73	505.13	668.55	-184.67	364.72	1085.2	199.09	266.84	65.412	-12.769	392.03	506.69	107.42	179.32	36.544	4.2807	643.33	332.26	-157.14	292.57	1035.8	-55.072	538.16	522.59	-160.41	288.51	1041.2	13.456	396.62	554.22	112.45	560.92	686.51	-140.77	311.59	1219.4	-14.528	482.37	1021.1	-172.3	650.5	28.926	-94.446	425.7	1600	42.436	375.15	1367.4	131.29	470.69	986.01	141.73	601.28	1638.2	-66.216	602.69	1637.7	8.798	504.47	1422	126.78	843.77	98.443	-80.895	236.94	70.824	64.46	694.92	82.439	-144.67	474.81	1245.1	221.24	558.32	855.6	207.96	631.78	423.5	-83.283	535.95	491.43	-32.733	479.99	757.71	-195.33	681.66	244.47	-90.109	655.52	333.55	-85.795	405.12	645.85	136.3
